<?xml version="1.0" encoding="UTF-8" standalone="no"?>
<!-- Created with Inkscape (http://www.inkscape.org/) -->

<svg
   width="120.59422mm"
   height="120.59423mm"
   viewBox="0 0 120.59422 120.59423"
   version="1.1"
   id="svg5"
   xml:space="preserve"
   xmlns="http://www.w3.org/2000/svg"
   xmlns:svg="http://www.w3.org/2000/svg"><defs
     id="defs2" /><g
     id="layer1"
     transform="translate(-44.702889,-109.5051)"><path
       id="path503"
       style="fill:#e90064;fill-opacity:1;stroke-width:0.117768"
       d="m 112.77261,112.44343 -1.79576,0.032 -1.79627,0.0326 -0.0326,1.59938 c -0.0301,1.47381 -0.0129,1.62442 0.21498,1.9141 0.24601,0.31236 0.25509,0.31419 1.82831,0.31419 h 1.5813 v -0.34933 -0.34985 l -1.3839,-0.0331 -1.38337,-0.0331 -0.0336,-1.20716 -0.0336,-1.20716 h 1.41696 1.41749 v -0.35657 z m 12.36565,0 -1.79575,0.032 -1.79628,0.0326 -0.032,1.91409 -0.0326,1.91358 h 0.41496 0.41548 v -1.59008 -1.58957 h 1.41283 1.41335 v -0.35657 z m -38.826051,0.006 c -1.371788,0 -1.516537,0.0212 -1.766817,0.25631 -0.255568,0.2401 -0.272335,0.34437 -0.272335,1.6707 0,1.29025 0.02223,1.4381 0.255798,1.68672 0.241847,0.25747 0.340231,0.27285 1.766818,0.27285 h 1.509985 v -0.35347 -0.35295 h -1.271757 c -0.832225,0 -1.320881,-0.0491 -1.413351,-0.14159 -0.189902,-0.1899 -0.189902,-2.00065 0,-2.19056 0.09247,-0.0924 0.581126,-0.14108 1.413351,-0.14108 h 1.271757 v -0.35347 -0.35346 z m 49.403191,0 c -2.24434,0 -2.21537,-0.0245 -2.21537,1.92701 0,1.29512 0.0218,1.43744 0.2589,1.68982 0.25089,0.26703 0.3104,0.2749 1.91357,0.2434 l 1.65468,-0.0326 v -1.1188 -1.11879 l -1.26607,-0.0336 -1.26607,-0.0331 v 0.41599 0.416 h 0.94258 0.94206 v 0.41238 0.41237 h -1.09554 c -0.69483,0 -1.14692,-0.0519 -1.23662,-0.14159 -0.1899,-0.1899 -0.1899,-2.00065 0,-2.19056 0.0946,-0.0946 0.62046,-0.14108 1.59008,-0.14108 h 1.44849 v -0.35347 -0.35346 z m 10.50323,0 v 1.94355 1.94303 h 0.41238 0.41186 v -0.76533 -0.76584 h 1.1777 1.17771 v 0.76584 0.76533 h 0.41238 0.41238 v -1.94303 -1.94355 h -0.41238 -0.41238 v 0.76584 0.76533 h -1.17771 -1.1777 v -0.76533 -0.76584 h -0.41186 z m -71.947547,0.0145 c -0.219632,-6.8e-4 -0.500427,0.004 -0.86558,0.0119 l -1.557011,0.0326 -0.03307,1.76165 c -0.018,0.96874 -0.0063,1.82977 0.02584,1.91357 0.04411,0.11498 0.476714,0.15245 1.761132,0.15245 1.699271,0 1.703589,-9.2e-4 1.947168,-0.31058 0.304327,-0.38688 0.309541,-0.80655 0.01757,-1.37924 -0.173297,-0.33991 -0.211217,-0.5904 -0.161747,-1.0697 0.05521,-0.53491 0.0278,-0.66259 -0.189136,-0.87953 -0.178607,-0.1786 -0.286265,-0.23104 -0.945162,-0.23306 z m 24.295158,10e-4 c -0.166677,8.9e-4 -0.362357,0.005 -0.593762,0.0103 l -1.39268,0.0331 -0.03307,1.76165 c -0.018,0.96874 -0.0063,1.82977 0.02584,1.91357 0.09086,0.23675 2.674041,0.21046 3.14296,-0.032 1.041651,-0.53864 1.068991,-2.83288 0.04134,-3.46801 -0.281392,-0.17416 -0.468357,-0.22247 -1.190625,-0.21859 z m -37.043733,0.0434 c -1.214636,0 -1.414688,0.0292 -1.707906,0.24804 -0.620997,0.4635 -0.781666,0.90516 -0.839226,2.30219 l -0.05271,1.27744 h 0.427364 c 0.420014,0 0.427365,-0.008 0.427365,-0.47129 v -0.47077 h 1.177705 1.17719 v 0.47077 c 0,0.46047 0.0097,0.47129 0.415478,0.47129 h 0.414962 l -0.03256,-1.91358 -0.03204,-1.91409 z m 0.609782,0.64802 v 0.76533 0.76533 h -1.192693 -1.193208 l 0.06925,-0.42685 c 0.122691,-0.75605 0.692235,-1.10229 1.816427,-1.10329 z m 10.48153,0 h 1.000973 c 0.966035,0 1.000972,0.009 1.000972,0.27078 0,0.43909 -0.22364,0.55346 -1.083138,0.55346 h -0.800984 v 0.41238 0.41186 h 0.933793 c 0.98252,0 1.356641,0.16771 1.278991,0.57361 -0.03036,0.15871 -0.2348,0.19792 -1.183907,0.22582 l -1.1467,0.0336 v -1.24075 z m 24.731307,0 h 0.688847 c 0.814189,0 1.391437,0.17666 1.551327,0.47542 0.202089,0.3776 0.137762,1.35454 -0.109038,1.65933 -0.195019,0.24084 -0.347416,0.28218 -1.177706,0.31988 l -0.95343,0.0434 v -1.24902 z m 12.719123,0.82424 v 0.41238 0.41186 h 1.17719 1.1777 v -0.41186 -0.41238 h -1.1777 z m 12.36513,0 v 0.41238 0.41186 h 1.17771 1.17771 v -0.41186 -0.41238 h -1.17771 z" /><path
       id="path483"
       style="fill:#e90064;fill-opacity:1;stroke-width:0.117768"
       d="m 48.942397,124.57912 v 0.41238 c 0,0.37949 0.0282,0.41238 0.353467,0.41238 h 0.353467 v 1.64848 1.64899 h 0.411861 0.412378 v -2.06085 -2.06138 h -0.765328 z m -0.706417,12.36566 v 0.40876 0.40824 l 1.324984,0.0331 1.324984,0.0336 v 0.35295 0.35346 l -1.204578,0.0589 c -1.585451,0.0775 -1.71992,0.1932 -1.78077,1.53324 l -0.04289,0.94 h 1.955436 1.955953 v -0.41238 -0.41238 h -1.531173 c -1.430708,0 -1.531173,-0.0147 -1.531173,-0.22582 0,-0.55437 0.08863,-0.59842 1.198377,-0.59842 1.515911,0 1.853635,-0.23091 1.859835,-1.27124 0.0031,-0.50806 -0.04975,-0.6771 -0.285254,-0.9126 -0.276188,-0.27616 -0.354674,-0.28939 -1.766301,-0.28939 z m -0.117822,12.36565 v 0.40876 0.40825 l 1.324984,0.0331 1.324983,0.0336 0.03669,0.3824 0.03669,0.38293 h -1.361674 -1.361674 v 0.41237 0.41187 h 1.361674 1.361674 l -0.03669,0.38292 -0.03669,0.3824 -1.324983,0.0336 -1.324984,0.0331 v 0.40876 0.40824 h 1.458826 c 1.996913,0 2.001491,-0.004 2.055171,-1.76475 0.06962,-2.28314 0.0056,-2.35748 -2.041736,-2.35748 z m -0.353467,12.36566 v 1.09554 c 0,0.69482 0.05193,1.14691 0.141594,1.23661 0.09395,0.0939 0.606833,0.14108 1.530655,0.14108 h 1.390096 v 0.82424 0.82475 h 0.411862 0.412378 v -2.06137 -2.06085 h -0.412378 -0.411862 v 0.82475 0.82424 h -1.118794 -1.118795 v -0.82424 -0.82475 h -0.412378 z m 0.235645,12.36565 v 0.94774 c 0,0.84896 0.02987,0.97761 0.288871,1.23662 0.268129,0.26816 0.374204,0.28887 1.459859,0.28887 1.242548,0 1.414666,0.0837 1.249019,0.60565 -0.06283,0.19795 -0.210009,0.21859 -1.533756,0.21859 h -1.463993 v 0.41238 0.41238 h 1.628324 c 1.598052,0 1.633363,-0.006 1.913578,-0.30438 0.40035,-0.42616 0.410519,-1.44851 0.01809,-1.84174 -0.233887,-0.23433 -0.420025,-0.27572 -1.472262,-0.32712 l -1.204577,-0.0589 -0.03669,-0.38292 -0.03721,-0.38292 h 1.36219 1.361674 v -0.41186 -0.41238 h -1.7663 z m 2.114082,12.36565 c -1.886396,0 -2.116748,0.22878 -2.109948,2.096 0.0045,1.22978 0.123115,1.59822 0.597896,1.86138 0.179661,0.0996 0.710695,0.1572 1.468127,0.1602 1.121338,0.004 1.20178,-0.0121 1.467611,-0.29507 0.22711,-0.24174 0.28112,-0.42597 0.28112,-0.95602 0,-0.57131 -0.0422,-0.6927 -0.326078,-0.93689 -0.296392,-0.2549 -0.433045,-0.2806 -1.497067,-0.2806 -1.143518,0 -1.171504,-0.006 -1.171504,-0.27079 0,-0.46841 0.212125,-0.55397 1.37821,-0.55397 h 1.095024 v -0.41186 -0.41238 z m -0.846976,2.48357 c 0.144017,5e-5 0.334704,0.006 0.587561,0.0145 l 1.030945,0.0341 0.03669,0.38292 0.03669,0.38241 h -0.926042 c -0.991973,0 -1.208711,-0.10008 -1.208711,-0.55811 0,-0.20274 0.01082,-0.25595 0.442867,-0.2558 z m -1.267106,9.87588 v 0.41135 0.41083 l 1.175122,0.0336 1.175122,0.0336 -0.65319,1.11879 c -0.359044,0.61534 -0.783738,1.34425 -0.944129,1.61954 l -0.291972,0.50023 h 0.506429 0.506429 l 1.03663,-1.7756 c 0.633798,-1.08566 1.022199,-1.87512 0.999939,-2.0314 -0.03524,-0.24744 -0.09179,-0.25686 -1.773019,-0.28836 z m 1.825211,12.37186 c -0.924917,0 -1.037025,0.0257 -1.308964,0.29766 -0.254943,0.25494 -0.29348,0.38817 -0.268201,0.93379 0.01726,0.37257 -0.03012,0.70887 -0.114721,0.8108 -0.190502,0.22954 -0.299295,0.92924 -0.203605,1.31052 0.04194,0.16709 0.181128,0.4085 0.309025,0.5364 0.204687,0.20464 0.395332,0.23254 1.592151,0.23254 1.286588,0 1.374951,-0.0153 1.648478,-0.28887 0.235501,-0.2355 0.288354,-0.40454 0.285254,-0.91261 -0.0022,-0.36058 -0.07625,-0.71996 -0.176217,-0.85214 -0.102037,-0.1349 -0.173116,-0.48727 -0.173116,-0.85938 0,-0.51247 -0.05394,-0.68491 -0.288871,-0.91984 -0.262046,-0.26206 -0.384053,-0.28887 -1.301213,-0.28887 z m 0.781348,0.81287 -0.03721,0.38861 c -0.03705,0.38553 -0.0424,0.38864 -0.715719,0.42374 -0.712182,0.0371 -0.861509,-0.0651 -0.773079,-0.52916 0.03314,-0.17394 0.176829,-0.21925 0.783415,-0.24805 z m -1.335319,1.67122 c 0.144769,-2.6e-4 0.335181,0.006 0.587044,0.0139 l 1.027328,0.0341 v 0.35295 0.35347 l -1.021127,0.0341 c -1.096363,0.0364 -1.229459,-0.0259 -1.106392,-0.51625 0.05396,-0.21501 0.07884,-0.27157 0.513147,-0.27233 z" /><path
       id="path481"
       style="fill:#9ce1ff;fill-opacity:1;stroke-width:0.117768"
       d="m 159.62918,125.40388 0.0372,0.38241 c 0.0307,0.31892 0.0908,0.38903 0.3607,0.42013 l 0.32401,0.0372 v 1.64125 1.64072 h 0.41186 0.41238 v -2.06085 -2.06086 h -0.77308 z m -0.70642,12.36565 0.0367,0.38241 0.0372,0.38292 1.3317,0.0336 1.33222,0.0331 -0.0367,0.37879 -0.0367,0.37879 -1.00097,0.0295 c -0.55056,0.0163 -1.12195,0.0574 -1.26969,0.0915 -0.45465,0.10485 -0.73127,0.71639 -0.73174,1.61644 l -5.2e-4,0.79479 h 1.94304 1.94355 v -0.41238 -0.41186 h -1.53841 -1.53892 l 0.0372,-0.38293 0.0367,-0.38292 1.21802,-0.0589 c 1.15494,-0.0558 1.23207,-0.0757 1.5012,-0.38912 0.46331,-0.53948 0.30638,-1.79679 -0.25115,-2.01073 -0.10486,-0.0403 -0.82589,-0.0729 -1.60197,-0.0729 z m -0.10283,12.36566 v 0.41186 0.41238 h 1.35444 1.35392 v 0.41237 0.41187 h -1.35392 -1.35444 v 0.41237 0.41186 h 1.35444 1.35392 v 0.41238 0.41238 h -1.35392 -1.35444 v 0.41186 0.41238 h 1.46141 1.46192 l 0.30489,-0.36225 c 0.28879,-0.34322 0.3049,-0.43285 0.3049,-1.69861 0,-1.26575 -0.0161,-1.35538 -0.3049,-1.6986 l -0.30489,-0.36225 h -1.46192 z m -0.35347,12.36565 v 1.09502 c 0,0.69483 0.0519,1.14692 0.14159,1.23662 0.094,0.0939 0.60683,0.14108 1.53066,0.14108 h 1.38958 v 0.82475 0.82424 h 0.41238 0.41238 v -2.06085 -2.06086 h -0.41238 -0.41238 v 0.82424 0.82424 h -1.1188 -1.11879 v -0.82424 -0.82424 h -0.41186 z m 0.23565,12.36514 v 0.81907 c 0,1.43818 0.24541,1.65416 1.8774,1.65416 1.10499,0 1.28209,0.0961 1.12035,0.60565 -0.0628,0.19794 -0.21001,0.21911 -1.53376,0.21911 h -1.46399 v 0.41186 0.41238 h 1.53892 c 0.8463,0 1.64065,-0.0547 1.76527,-0.12144 0.28779,-0.15402 0.58239,-0.718 0.58239,-1.11518 0,-0.44853 -0.32166,-0.99476 -0.66146,-1.12396 -0.16305,-0.062 -0.76951,-0.11266 -1.34824,-0.11266 h -1.05265 v -0.40824 -0.40824 l 1.32499,-0.0336 1.32498,-0.0331 0.0367,-0.38292 0.0372,-0.38292 h -1.77405 z m 0.80098,12.36565 -0.40049,0.40049 -0.40049,0.4005 v 1.26038 1.25988 l 0.40049,0.40049 0.40049,0.40049 h 1.16324 c 0.85572,0 1.23157,-0.0478 1.42162,-0.18087 0.35472,-0.24845 0.52826,-0.94486 0.37465,-1.5012 -0.173,-0.62653 -0.56231,-0.79116 -1.87017,-0.79116 -1.03356,0 -1.06609,-0.008 -1.06609,-0.27079 0,-0.46841 0.21213,-0.55345 1.37822,-0.55345 h 1.09502 v -0.41238 -0.41238 h -1.2485 z m 1.08314,2.47324 h 1.05988 v 0.41237 0.41186 h -0.91829 c -0.98184,0 -1.20148,-0.10103 -1.20148,-0.55345 0,-0.26286 0.0324,-0.27078 1.05989,-0.27078 z m -1.78181,9.88621 0.0372,0.38603 0.0372,0.38602 1.14825,0.0336 c 0.63153,0.0185 1.14825,0.0558 1.14825,0.0827 0,0.0269 -0.42082,0.76679 -0.93483,1.64435 l -0.93431,1.59525 0.49248,-0.004 0.49299,-0.004 0.99839,-1.73323 c 0.54904,-0.95311 0.99897,-1.86534 1.00097,-2.02727 l 0.003,-0.29455 -1.74459,-0.0326 z m 1.7508,12.37186 c -0.82587,0 -1.02566,0.0384 -1.24075,0.23874 -0.30592,0.28498 -0.4231,0.68853 -0.3483,1.19838 0.0357,0.2433 -0.0266,0.5124 -0.17828,0.76946 -0.3155,0.53472 -0.22161,1.28072 0.20774,1.65003 0.27686,0.23816 0.43256,0.2651 1.52859,0.2651 0.67119,0 1.30642,-0.0327 1.41128,-0.0729 0.49458,-0.18979 0.70662,-1.39603 0.33796,-1.92237 -0.13626,-0.19457 -0.18846,-0.47455 -0.16846,-0.9064 0.0247,-0.53277 -0.0146,-0.66881 -0.2682,-0.92243 -0.27065,-0.27066 -0.38613,-0.29765 -1.28158,-0.29765 z m -0.0279,0.82475 h 0.76584 v 0.41187 0.41237 h -0.68729 c -0.37784,0 -0.72213,-0.0353 -0.76533,-0.0785 -0.0432,-0.0432 -0.0786,-0.22886 -0.0786,-0.41238 0,-0.33168 0.003,-0.33332 0.76533,-0.33332 z m 0.002,1.70739 h 1.05833 l 0.0372,0.38293 0.0367,0.3824 h -1.07074 c -1.11945,0 -1.25465,-0.0642 -1.16065,-0.55242 0.0359,-0.18657 0.17187,-0.21291 1.09916,-0.21291 z" /><path
       style="fill:#9ce1ff;fill-opacity:1;stroke-width:0.117768"
       d="M 53.417706,169.80221 V 118.21992 H 105 156.58229 v 51.58229 51.58229 H 105 53.417706 Z m 101.986904,0 V 119.39759 H 105 54.595384 v 50.40462 50.40462 H 105 155.40461 Z"
       id="path451" /><path
       id="path449"
       style="fill:#9ce1ff;fill-opacity:1;stroke-width:0.117768"
       d="m 112.77261,223.26251 -1.79576,0.0326 -1.79627,0.0326 -0.0326,1.62161 c -0.0321,1.58976 -0.0273,1.62686 0.25942,1.91357 0.28147,0.28151 0.34992,0.29249 1.82883,0.29249 h 1.53634 v -0.34985 -0.34933 l -1.38338,-0.0331 -1.38389,-0.0336 -0.0336,-1.20716 -0.0336,-1.20665 h 1.41696 1.41749 v -0.35657 z m -39.330416,0.006 c -1.268131,0 -1.521259,0.0301 -1.581299,0.18655 -0.09748,0.25395 -0.0909,3.52338 0.0072,3.62148 0.04318,0.0432 0.829851,0.0786 1.748214,0.0786 1.548069,0 1.685945,-0.0182 1.893941,-0.24804 0.320376,-0.35409 0.28708,-1.19731 -0.06201,-1.5689 -0.214386,-0.22821 -0.23985,-0.32565 -0.135909,-0.51987 0.200089,-0.37387 0.150696,-0.8998 -0.116272,-1.2392 -0.24101,-0.3063 -0.263073,-0.31057 -1.753898,-0.31057 z m 12.886035,0 c -1.411627,0 -1.490113,0.0132 -1.766301,0.28939 -0.273657,0.27366 -0.288871,0.36136 -0.288871,1.65364 0,1.29227 0.01521,1.3805 0.288871,1.65416 v 5.2e-4 c 0.276188,0.27617 0.354674,0.28887 1.766301,0.28887 h 1.477429 v -0.34933 -0.34985 l -1.383378,-0.0331 -1.383895,-0.0331 -0.03411,-1.10897 c -0.02485,-0.80779 0.0072,-1.13541 0.117823,-1.20561 0.08354,-0.053 0.7217,-0.0973 1.418001,-0.0982 l 1.265556,-0.002 v -0.35347 -0.35346 z m 37.056131,0 c -1.49069,0 -1.76441,0.0282 -1.82521,0.18655 -0.0393,0.10246 -0.0718,0.97674 -0.0718,1.94303 v 1.757 h 0.41238 0.41238 v -1.59008 -1.58957 h 1.41283 1.41335 v -0.35347 -0.35346 z m 12.06542,0 c -1.3258,0.002 -1.39888,0.0274 -1.66088,0.28939 -0.27367,0.27366 -0.28887,0.36136 -0.28887,1.65364 0,1.2965 0.0143,1.38005 0.29197,1.65778 v 5.2e-4 c 0.28672,0.28672 0.32432,0.29151 1.91409,0.25941 l 1.62109,-0.0325 0.0346,-1.05007 c 0.0249,-0.76054 -0.008,-1.0768 -0.11783,-1.1467 -0.0837,-0.0531 -0.66916,-0.0972 -1.30069,-0.0982 l -1.14825,-0.002 v 0.41238 0.41238 h 0.94258 0.94206 v 0.41599 0.41651 l -1.20716,-0.0336 -1.20717,-0.0336 -0.0341,-1.10897 c -0.0248,-0.80779 0.007,-1.13541 0.11782,-1.20561 0.0835,-0.053 0.80076,-0.0973 1.59422,-0.0982 l 1.4428,-0.002 v -0.35347 -0.35346 h -1.65416 c -0.1,0 -0.19377,-1.4e-4 -0.28215,0 z m 10.76885,0 v 1.94303 1.94355 h 0.41238 0.41186 v -0.76584 -0.76533 h 1.1777 1.17771 v 0.76533 0.76584 h 0.41238 0.41238 v -1.94355 -1.94303 h -0.41238 -0.41238 v 0.76533 0.76584 h -1.17771 -1.1777 v -0.76584 -0.76533 h -0.41186 z m -48.760848,0.008 c -0.563677,4.8e-4 -0.776031,0.0385 -0.833541,0.12919 -0.122823,0.19376 -0.137477,3.55842 -0.01602,3.67988 0.04813,0.0482 0.732989,0.0702 1.521871,0.0491 1.339599,-0.0359 1.455185,-0.0578 1.752865,-0.33279 0.839993,-0.77593 0.863463,-2.34401 0.04651,-3.12746 -0.35326,-0.33878 -0.393565,-0.34774 -1.783354,-0.38654 -0.273149,-0.008 -0.500438,-0.0115 -0.68833,-0.0114 z m -36.325948,0.0134 c -0.647969,-9.1e-4 -0.834642,0.0524 -1.167371,0.24391 -0.699209,0.40243 -0.923383,0.94729 -0.988053,2.4014 l -0.05426,1.22008 h 0.427364 c 0.420423,0 0.427881,-0.008 0.427881,-0.47129 v -0.47077 h 1.177705 1.17719 v 0.47077 c 0,0.46048 0.0097,0.47129 0.415478,0.47129 h 0.414962 l -0.03256,-1.91409 -0.03204,-1.91358 -1.236617,-0.0295 c -0.206112,-0.005 -0.380152,-0.008 -0.529683,-0.008 z m 1.000456,0.6537 v 0.78135 0.78135 H 60.9551 59.777395 v -0.3514 c 0,-0.21857 0.124531,-0.49075 0.329695,-0.72037 0.297752,-0.33326 0.41251,-0.37525 1.177706,-0.42995 z m 35.212837,0.007 0.95343,0.0434 c 0.83029,0.0377 0.982687,0.079 1.177706,0.31988 0.30907,0.3817 0.30907,1.4151 0,1.79679 -0.195019,0.24083 -0.347416,0.28217 -1.177706,0.31987 l -0.95343,0.0434 v -1.26194 z m -24.731307,0.0253 h 1.000973 c 0.975505,0 1.000972,0.007 1.000972,0.27957 0,0.4121 -0.217072,0.52813 -1.064534,0.56793 -0.759073,0.0356 -0.760677,0.0362 -0.760677,0.3886 v 0.35347 l 0.936377,0.0346 c 1.018334,0.0379 1.242301,0.14029 1.242301,0.56844 v 5.2e-4 c 0,0.276 -0.0162,0.27957 -1.177706,0.27957 H 72.61382 v -1.23662 z m 39.80532,0.81546 -1.1467,0.0341 c -0.99741,0.0293 -1.15212,0.0613 -1.18752,0.2465 -0.0224,0.11713 -0.0115,0.28952 0.0243,0.38292 0.0504,0.13147 0.3186,0.1695 1.18752,0.1695 h 1.12241 v -0.41651 z m 12.36566,0 -1.1467,0.0341 c -0.99741,0.0293 -1.15203,0.0613 -1.18753,0.2465 -0.0224,0.11713 -0.0115,0.28952 0.0243,0.38292 0.0504,0.13147 0.31861,0.1695 1.18752,0.1695 h 1.12242 v -0.41651 z" /><path
       style="fill:#9ce1ff;fill-opacity:1;stroke-width:0.117768"
       d="M 44.702889,169.80221 V 109.5051 H 105 165.2971 v 60.29711 60.29711 H 105 44.702889 Z m 119.416541,0 V 110.68278 H 105 45.880567 v 59.11943 59.11943 H 105 164.11943 Z"
       id="path322" /></g></svg>
