<?xml version="1.0" encoding="UTF-8" standalone="no"?>
<!-- Created with Inkscape (http://www.inkscape.org/) -->

<svg
   width="183.9865mm"
   height="66.048347mm"
   viewBox="0 0 183.9865 66.048347"
   version="1.1"
   id="svg5"
   xml:space="preserve"
   xmlns="http://www.w3.org/2000/svg"
   xmlns:svg="http://www.w3.org/2000/svg"><defs
     id="defs2"><filter
       style="color-interpolation-filters:sRGB"
       id="filter3353"
       x="-0.060769163"
       y="-0.18948896"
       width="1.121545"
       height="1.3775235"><feGaussianBlur
         stdDeviation="2.3754816"
         id="feGaussianBlur3355" /></filter><filter
       style="color-interpolation-filters:sRGB"
       id="filter3363"
       x="-0.060606536"
       y="-0.43779406"
       width="1.1212131"
       height="1.8755881"><feGaussianBlur
         stdDeviation="4.5539525"
         id="feGaussianBlur3365" /></filter></defs><g
     id="layer1"
     transform="translate(-14.247193,-48.977889)"><path
       id="path378"
       style="fill:#e80064;fill-opacity:0.7;stroke-width:0.188;stroke-dasharray:none;filter:url(#filter3363)"
       d="m 45.287675,48.977889 -0.820105,0.08992 -0.820105,0.08992 -0.586528,0.587044 -0.586527,0.586528 -0.05116,11.62513 -0.05116,11.624613 h 2.253092 2.252576 l 0.04909,-8.371065 0.04858,-8.371582 8.046021,8.456848 8.045503,8.456848 0.300241,0.0801 h 5.16e-4 l 0.30024,0.08062 0.656291,0.01499 0.656808,0.01499 0.433048,-0.240295 0.433565,-0.240295 0.362252,-0.550354 0.362769,-0.549838 0.001,-11.487671 0.0016,-11.488187 h -2.248958 -2.248441 l -0.04909,8.377783 -0.04858,8.377266 -7.744747,-8.143172 -7.74423,-8.142655 -0.60203,-0.438733 z m 147.137275,0.390157 -8.39742,0.05581 -8.39794,0.05581 -1.24902,0.615466 -1.24954,0.61495 -0.84594,0.941545 -0.84646,0.941027 -0.4222,1.069186 -0.42219,1.069185 -0.005,1.875855 -0.005,1.875337 0.58705,1.247469 0.58652,1.24747 0.78807,0.788065 0.78755,0.788066 0.97927,0.448034 0.97927,0.448552 0.99683,0.189136 0.99633,0.188619 5.55418,0.001 5.55418,5.17e-4 0.62115,0.378788 0.62064,0.378272 0.2899,0.693497 0.28991,0.693498 -0.093,0.824239 -0.093,0.824239 -0.3669,0.494544 -0.3669,0.494026 -0.45114,0.232028 -0.45062,0.23151 -8.86199,0.0031 -8.86199,0.0031 v 2.255676 l -5.2e-4,-5.16e-4 v 2.255676 l 9.42475,-0.05219 9.42475,-0.05168 1.21904,-0.583427 1.21905,-0.58291 0.72916,-0.717269 0.72915,-0.716752 0.58394,-1.231966 0.58343,-1.231966 -0.002,-1.969389 -0.002,-1.968872 -0.53846,-1.169438 -0.53796,-1.169437 -0.91984,-0.859896 -0.91932,-0.860413 -0.99219,-0.454236 -0.9927,-0.454235 -0.99632,-0.189136 -0.99684,-0.188619 h -5.61981 -5.61982 l -0.62063,-0.621151 -0.62115,-0.620634 -0.12868,-0.858862 -0.12867,-0.858346 0.38551,-0.871264 0.3855,-0.871782 0.65836,-0.274918 0.65784,-0.274919 h 7.69617 7.69566 v -2.25981 z m -178.177758,0.0186 v 12.097452 12.096936 h 2.250509 2.250509 V 61.484102 49.38665 h -2.250509 z m 19.033981,0 -4.873605,4.876188 -4.873604,4.876705 h -1.548743 -1.548742 v 2.344559 2.344043 h 1.548742 1.548743 l 4.873604,4.876705 4.873605,4.877222 3.189986,-5.17e-4 3.189986,-5.17e-4 -6.171716,-6.045109 -6.1712,-6.045109 6.1712,-6.046142 6.171716,-6.046143 -3.189986,-0.0062 z m 38.170796,0 v 12.097452 12.096936 h 2.250509 2.250509 V 61.484102 49.38665 h -2.250509 z m 14.080795,0 -1.033529,0.386539 -1.033012,0.38654 -0.81132,0.788582 -0.811837,0.788583 -0.412894,0.853178 -0.412895,0.853178 -0.200505,1.083138 -0.199987,1.083138 0.05943,6.7076 0.05943,6.708118 0.656808,1.286227 0.656291,1.286226 0.915189,0.690914 0.914673,0.690914 0.867131,0.289388 0.866613,0.289388 8.974646,0.01137 8.974654,0.01137 0.63768,-0.637687 0.63769,-0.637687 v -5.818249 -5.818767 l -0.48317,-0.573608 -0.48266,-0.573609 -0.68936,-0.199987 -0.68937,-0.199471 -6.846097,0.05581 -6.845577,0.05529 v 2.251025 2.250509 l 5.76709,0.04961 5.767614,0.04961 v 2.623095 2.623096 H 93.24082 86.14668 L 85.691927,68.595813 85.237174,68.112122 V 61.45258 54.793038 l 0.526067,-0.452686 0.526582,-0.452685 h 9.179802 9.179805 V 51.637158 49.38665 h -9.558593 z m 23.805266,0 v 12.097452 12.096936 h 2.25102 2.25051 V 68.70485 63.828145 h 7.59592 7.59592 v 4.876705 4.876188 h 2.25103 2.2505 V 61.484102 49.38665 h -2.2505 -2.25103 v 4.876188 4.876705 h -7.59592 -7.59592 V 54.262838 49.38665 h -2.25051 z m 27.38334,0 v 2.250508 2.250509 h 4.78265 4.78266 v 9.846944 9.846427 h 2.34456 2.34456 v -9.846427 -9.846944 h 4.78265 4.78266 V 51.637158 49.38665 h -11.90987 z m 27.33373,0.925008 -0.093,0.0925 -0.093,0.09302 -0.72606,3.988904 -0.72657,3.98942 v 0.238229 0.238228 h 1.5813 1.58078 l 0.29094,-0.984953 0.29094,-0.984436 1.01338,-3.28197 1.01337,-3.282487 -2.06602,-0.05323 z" /><path
       id="path3350"
       style="fill:#8dcbe6;fill-opacity:0.7;stroke:#8dcbe6;stroke-width:0.588;stroke-dasharray:none;stroke-opacity:0.7;filter:url(#filter3353)"
       d="m 105.59821,77.144645 -1.09141,1.139982 -1.09141,1.139466 -1.90169,-1.122412 -1.901176,-1.122929 -0.311608,0.344165 -0.311093,0.344165 0.117823,1.280025 0.117822,1.280025 0.09508,0.613916 0.0956,0.613399 -1.015442,1.074353 -1.015442,1.074353 -0.212907,0.409795 -0.212907,0.409277 v 1.144116 1.1436 l -0.289388,0.692464 -0.289388,0.692981 -1.123962,1.734778 -1.123962,1.735294 -0.274919,0.778247 -0.274402,0.778247 v 1.016992 1.017509 l 0.274402,0.531234 0.274919,0.530717 0.575158,0.484208 0.575159,0.483692 0.613399,0.169498 0.613916,0.169499 0.533301,0.494544 0.533301,0.494026 h 0.357084 0.357084 l 0.506429,-0.26355 0.506429,-0.263549 0.396358,-0.439767 0.396352,-0.439766 0.78083,-1.35444 0.78083,-1.353922 0.7922,-0.533301 0.7922,-0.533301 1.52859,-0.784965 1.52911,-0.785481 h 0.11369 0.11368 l -0.12247,1.078487 -0.12247,1.078487 -0.52762,1.126546 -0.52761,1.127063 -1.43713,1.494483 -1.43712,1.493965 -0.48472,0.635104 -0.48473,0.635616 -0.33641,0.95653 -0.33693,0.95602 v 0.42219 0.4222 l 0.39791,1.0635 0.39739,1.06299 0.64389,0.71261 0.64337,0.71211 0.88108,0.56017 0.88109,0.56017 0.84387,0.23306 0.84439,0.23255 1.21905,0.23099 1.21905,0.23151 0.89245,0.0212 0.89194,0.0212 1.90841,-0.2868 1.90789,-0.2868 1.28829,-0.44752 1.28778,-0.44804 0.45992,-0.30127 0.45992,-0.30179 v -0.25373 -0.25425 l -0.28319,-0.23513 -0.28318,-0.23461 -1.35806,0.49403 -1.35754,0.49454 -1.3131,0.27699 -1.3131,0.27698 -1.98592,0.003 -1.98644,0.003 -1.42214,-0.3638 -1.42265,-0.3638 -0.71779,-0.45785 -0.71727,-0.45786 -0.41289,-0.447 -0.41341,-0.447 -0.28991,-0.69453 -0.29042,-0.69505 v -0.87436 -0.87489 l 0.40825,-0.67851 0.40824,-0.67851 1.63763,-1.708938 1.63762,-1.70894 0.41755,-0.818038 0.41754,-0.818554 0.34985,-1.223182 0.34985,-1.223698 v -1.089855 -1.090373 l 0.56483,-0.7028 0.56534,-0.703316 0.21497,-1.026294 0.21549,-1.026294 -0.26613,-0.557072 -0.26562,-0.557072 -0.46767,-0.05064 -0.46716,-0.05116 -0.57774,0.357084 -0.57774,0.356567 -0.34675,0.725537 -0.34675,0.725537 -0.10749,1.201478 -0.10697,1.20096 -1.02836,0.555005 -1.02836,0.554488 -0.89762,0.469739 -0.89813,0.469222 -0.89401,0.803568 -0.89348,0.804085 -0.528132,1.043348 -0.528133,1.043864 -0.475423,0.475423 -0.475423,0.475423 h -0.183451 -0.183452 l 0.273885,-0.422197 0.274402,-0.421679 0.251664,-0.406694 0.252181,-0.40721 -0.246496,-0.296106 -0.24598,-0.296623 h -0.244946 -0.24443 l -0.536401,0.650607 -0.536402,0.651123 -0.465087,-0.135393 -0.465088,-0.134875 -0.424781,-0.303341 -0.42478,-0.302824 -0.169499,-0.590661 -0.169498,-0.590662 0.113688,-0.699699 0.113688,-0.699699 0.548804,-0.938444 0.548287,-0.938961 0.650089,-0.987019 0.65009,-0.98702 0.347265,-0.794784 0.347266,-0.794783 0.110587,-1.374077 0.110588,-1.374076 1.168404,-1.28881 1.168404,-1.289327 1.66811,-0.712618 1.66812,-0.712618 0.82527,-0.917257 0.82579,-0.91674 0.0434,0.07286 0.0434,0.07286 0.59479,1.242818 0.5948,1.242818 2.31045,0.08785 2.31045,0.08785 0.99426,0.529683 0.99425,0.529167 0.82838,0.729155 0.82837,0.729671 0.53847,0.797367 0.53847,0.797884 0.59272,1.255738 0.59325,1.25522 v 0.299723 0.300241 l 0.56999,1.701188 0.56999,1.701705 0.46147,1.953369 0.46199,1.953369 v 0.527616 0.527617 l -0.55242,0.192753 -0.55242,0.192236 -0.83664,0.771012 -0.83665,0.771013 -0.29869,0.630452 -0.2992,0.63045 v 0.77773 0.77773 l 0.49609,0.45992 0.4961,0.45992 h 0.64698 0.64699 l 0.49816,-0.30179 0.49765,-0.30231 0.46095,-0.57154 0.46096,-0.57154 0.33021,-0.95498 0.33021,-0.954977 0.006,-0.515731 0.006,-0.515731 h 0.54673 0.54726 l 0.81287,0.350883 0.81235,0.350883 0.82062,0.731738 0.82011,0.732255 -0.39843,0.7431 -0.39791,0.74311 v 0.61805 0.61857 l 0.42013,0.15554 0.42013,0.15503 0.48163,-0.13797 0.48162,-0.13798 0.56069,-0.2899 0.56069,-0.28991 1.3038,-1.37563 1.30431,-1.375101 1.33428,-1.968356 1.33481,-1.968872 2.28616,-3.552238 2.28668,-3.552754 1.85777,-2.449463 1.85725,-2.448946 0.68885,-0.728121 0.68885,-0.727604 2.36626,-0.440284 2.36626,-0.4408 1.21957,-0.3545 1.21905,-0.3545 0.74982,-0.315743 0.75034,-0.315743 0.51573,-0.494027 0.51573,-0.494027 v -0.427364 -0.427364 l -0.36277,-0.193786 -0.36276,-0.194304 -1.27796,0.0021 -1.27848,0.0021 -1.03146,0.273885 -1.03146,0.274402 -1.3131,0.656291 -1.3131,0.656291 -1.09864,0.83199 -1.09915,0.831991 -0.59583,0.111621 -0.59635,0.112138 -3.50831,0.173633 -3.5078,0.173632 -3.33055,-0.172599 -3.33106,-0.172082 -2.81326,-0.353467 -2.81327,-0.353467 -0.23461,0.08992 -0.23409,0.08992 v 0.432015 0.432015 l 0.57722,0.485758 0.57671,0.485759 0.48318,0.120923 0.48265,0.121439 0.29973,-0.179834 0.29972,-0.18035 4.22041,0.187068 4.2199,0.187069 3.37602,-0.230477 3.37602,-0.230994 0.9369,-0.114721 0.93638,-0.114722 -0.99478,1.088306 -0.99477,1.088822 -1.18287,1.519804 -1.18236,1.520321 -1.41128,2.062923 -1.41128,2.062923 -1.54461,2.532145 -1.54461,2.532145 -0.7984,1.128097 -0.79892,1.128613 -0.79427,0.793751 -0.79426,0.79427 h -0.14263 -0.14263 l -0.23461,-0.56586 -0.23409,-0.565858 -1.0542,-0.964799 -1.05472,-0.965316 -0.83354,-0.369486 -0.83354,-0.369487 -0.92863,-0.115755 -0.92862,-0.115755 -0.32556,-1.611271 -0.32608,-1.611788 -0.50591,-1.764234 -0.5054,-1.76475 -0.47801,-1.219047 -0.47852,-1.219047 -0.64957,-1.313098 -0.64957,-1.313098 -0.68627,-0.843876 -0.68574,-0.843876 -0.75035,-0.699699 -0.75034,-0.700216 -1.03146,-0.545186 -1.03146,-0.54467 -1.0604,-0.302824 -1.0604,-0.302307 h -1.12758 -1.12706 l -0.77153,-1.594218 -0.77205,-1.594218 h -0.27027 z m 43.88827,1.554944 0.45889,0.08733 0.45837,0.08785 -0.17673,0.330729 -0.17725,0.330729 -0.86713,0.407728 -0.86714,0.40721 -1.71772,0.441833 -1.71772,0.442351 -0.6563,0.109037 -0.6568,0.109554 0.6568,-0.561723 0.6563,-0.56224 1.31309,-0.659391 1.31259,-0.659391 0.99063,-0.155546 z m -48.96342,0.497127 0.74879,0.427881 0.7488,0.427364 10e-4,0.118856 0.002,0.118856 -0.32815,0.112654 -0.32814,0.112138 -0.4222,0.185002 -0.42168,0.184485 v -0.843876 z m 90.03533,4.512903 -0.51986,0.0041 -0.51987,0.0036 -0.81752,0.371036 -0.817,0.371037 -1.16737,0.928626 -1.16737,0.929142 -1.78077,1.855184 -1.78077,1.855184 -1.4981,1.995227 -1.4981,1.995227 -0.95602,1.604036 -0.95601,1.60352 -0.90795,0.721403 -0.90744,0.721403 -1.83348,1.241785 -1.83297,1.241791 h -0.27698 -0.27647 v -0.43874 -0.43925 l 0.70332,-1.040763 0.70331,-1.04128 0.72554,-1.045414 0.72605,-1.045931 -0.11058,-0.287838 -0.11007,-0.287321 h -0.34624 -0.34571 l -0.55087,0.577226 -0.55087,0.576709 -1.78181,1.360124 -1.7818,1.360124 -1.18184,0.796334 -1.18236,0.79582 -0.67334,0.28163 -0.67283,0.28112 -0.27337,-0.27336 -0.27285,-0.27286 0.23306,-0.4439 0.23306,-0.4439 0.55397,-0.706932 0.55449,-0.706933 -0.10697,-0.277503 -0.10645,-0.278019 h -0.26975 -0.26975 l -1.45676,1.238167 -1.45676,1.23817 -0.44132,0.20102 -0.44131,0.20102 -0.20051,-0.2005 -0.2005,-0.20051 0.33899,-0.714684 0.339,-0.714168 1.16841,-1.238684 1.1684,-1.238684 0.94981,-0.516765 0.95033,-0.517281 0.5147,0.05943 0.5147,0.05891 0.0574,0.403593 0.0574,0.403593 -0.57309,0.652673 -0.57361,0.652674 v 0.116272 0.115755 h 0.38344 0.38292 l 0.92966,-0.869714 0.93018,-0.869715 V 95.912441 95.41273 l -0.22531,-0.224793 -0.2248,-0.225309 h -0.77256 -0.77256 l -0.94826,0.281637 -0.94775,0.281636 -1.3839,0.903821 -1.38337,0.903821 -0.90589,1.008207 -0.90589,1.008724 -0.36018,0.705896 -0.36019,0.70539 v 0.56379 0.56327 l 0.38447,0.20567 0.38448,0.20568 0.63252,-0.20878 0.632,-0.20825 0.7183,-0.51677 0.7183,-0.51625 0.24185,-0.14624 0.24185,-0.14573 -0.12196,0.48576 -0.12196,0.48576 0.30644,0.46767 h 0.001 l 0.30644,0.46767 h 0.47077 0.47077 l 0.97824,-0.49557 0.97875,-0.49506 1.40663,-0.94103 1.40663,-0.941547 0.68317,-0.532784 0.68368,-0.532784 h 0.0822 0.0822 l -0.62477,1.241784 -0.62529,1.241791 v 0.54622 0.5457 l 0.42117,0.15606 0.42116,0.15555 0.55656,-0.19379 0.55655,-0.1943 2.23242,-1.51516 2.23294,-1.51515 0.39068,-0.28112 0.39119,-0.28112 -0.15917,0.375171 -0.15864,0.374654 -0.0868,1.151865 -0.0868,1.15187 0.39533,0.39533 0.39584,0.39584 0.70332,-0.004 0.70331,-0.004 0.79634,-0.36174 0.79685,-0.36173 0.89141,-0.60358 0.89142,-0.60358 1.85622,-1.401988 1.85673,-1.401981 -0.13022,0.980819 -0.13022,0.980301 -0.37311,0.997869 -0.37362,0.99839 -0.30489,0.11731 -0.30489,0.11679 -0.49558,-0.47439 -0.49558,-0.47491 h -0.21755 -0.21756 l -0.19327,0.36122 -0.19379,0.36173 0.10336,0.26976 0.10335,0.26923 0.46767,0.21291 0.46716,0.2129 h 0.61701 0.6165 l 1.48467,-0.90278 1.48414,-0.90331 1.40715,-1.005105 1.40663,-1.005107 1.07694,-0.858346 1.07694,-0.857828 0.001,-0.234611 5.2e-4,-0.234611 h -0.17673 -0.17674 l -1.18287,0.929659 -1.18288,0.929659 -1.65364,1.152384 -1.65365,1.152386 -0.10593,-0.10594 -0.10594,-0.10593 0.33486,-1.741501 0.33435,-1.741495 0.2527,-0.727088 0.25269,-0.727087 V 95.314295 95.15048 h -0.15451 -0.15451 l -1.58027,1.513603 -1.58078,1.514119 -1.87534,1.273308 -1.87533,1.27331 -0.60048,0.30747 -0.59997,0.30748 h -0.48317 -0.48266 l -0.1819,-0.47801 -0.18138,-0.47801 0.17673,-0.79013 0.17725,-0.79065 0.38602,-0.872814 0.38603,-0.872815 2.17196,-1.686202 2.17247,-1.686719 2.25568,-2.033468 2.25516,-2.033467 1.29553,-1.500684 1.29552,-1.500167 0.49093,-0.993221 0.49041,-0.993221 -0.20981,-0.460437 z m -1.13378,1.084172 v 0.363285 0.363285 l -0.5736,0.866614 -0.57361,0.866097 -1.36581,1.557528 -1.36581,1.557011 -1.87017,1.781803 -1.86965,1.781803 -1.16117,0.903304 -1.16066,0.903305 V 95.572978 95.40813 l 1.14257,-1.676384 1.14205,-1.676383 1.37046,-1.687752 1.37097,-1.688269 1.2852,-1.324984 1.28467,-1.324984 0.65681,-0.488859 0.65629,-0.488859 0.51573,-0.129191 z m -81.5821,2.984314 0.10594,0.10542 0.10542,0.105936 -0.37362,0.813904 -0.37362,0.813904 -0.016,-0.240296 -0.0155,-0.240812 0.2837,-0.679028 z m 67.48839,4.559928 -0.37155,0.198954 -0.37156,0.198955 -0.3545,0.58291 -0.3545,0.58291 0.18345,0.342615 0.18345,0.343131 h 0.37776 0.37724 l 0.45992,-0.496094 0.45992,-0.49661 V 93.07959 92.564376 l -0.29456,-0.113172 z m -34.82113,0.728121 -0.65939,0.578776 -0.65991,0.579293 -0.11937,0.791166 -0.11989,0.791166 -1.11208,1.031462 -1.11259,1.031978 0.14056,0.219625 0.14004,0.220142 1.11983,-0.923458 1.11983,-0.922941 h 0.13126 0.13125 l 0.12403,0.38964 0.1235,0.390157 -1.31826,1.359607 -1.31878,1.360124 -0.12093,0.481619 -0.12092,0.48163 0.0625,0.4222 0.062,0.42168 0.31109,0.19482 0.31058,0.19482 0.73639,-0.22066 0.73587,-0.22014 1.53324,-1.0263 1.53272,-1.026292 -0.28215,0.546222 -0.28215,0.5457 v 0.56534 0.56534 l 0.38395,0.20567 0.38447,0.20568 0.63252,-0.20878 0.63252,-0.20825 0.71779,-0.51677 0.7183,-0.51625 0.24185,-0.14624 0.24184,-0.14573 -0.12195,0.48576 -0.12196,0.48576 0.30644,0.46767 v 5.2e-4 l 0.30644,0.46767 h 0.47077 0.47078 l 0.97875,-0.49558 0.97823,-0.49506 1.40664,-0.94102 1.40663,-0.941033 0.68368,-0.5333 0.68316,-0.532784 h 0.0873 0.0868 l -0.83302,1.605067 -0.83355,1.60507 0.10387,0.27079 0.10387,0.27026 0.42788,-0.003 0.42789,-0.003 2.43809,-2.08308 2.43861,-2.083074 0.95911,-0.643888 0.95964,-0.643888 0.47594,0.119889 0.47594,0.119373 0.76842,-0.694015 0.76843,-0.694531 V 95.3363 95.002987 l -0.31109,-0.119373 -0.31057,-0.119372 -0.76792,0.504878 -0.76739,0.505396 -1.50068,1.128096 -1.50017,1.128614 -1.45366,1.201477 -1.45366,1.201477 v -0.19482 -0.19482 l 0.75034,-1.424203 0.75035,-1.424719 v -0.465605 -0.466121 l -0.28474,-0.109038 -0.28474,-0.109554 -0.51263,0.218592 -0.51211,0.218074 -0.56276,0.461987 -0.56275,0.461988 0.25218,0.160713 0.25269,0.160197 -1.09657,0.836125 -1.09657,0.836642 -1.18184,0.796332 -1.18236,0.79582 -0.67283,0.28163 -0.67334,0.28112 -0.27285,-0.27285 -0.27337,-0.27337 0.23306,-0.4439 0.23306,-0.4439 0.55449,-0.70693 0.55397,-0.706933 -0.10645,-0.277503 -0.10646,-0.278019 h -0.26975 -0.26975 l -1.45676,1.238167 -1.45676,1.238168 -0.44131,0.20102 -0.44184,0.20102 -0.2005,-0.2005 -0.20051,-0.20051 0.339,-0.714682 0.33952,-0.714168 1.16788,-1.238684 1.16841,-1.238684 0.95033,-0.516765 0.94981,-0.517281 0.5147,0.05943 0.51469,0.05891 0.0574,0.403593 0.0579,0.403593 -0.57361,0.652673 -0.57309,0.65319 v 0.115756 0.115755 h 0.38292 0.38344 l 0.92966,-0.869714 0.92966,-0.869715 v -0.513664 -0.51418 l -0.28474,-0.236161 -0.28473,-0.236678 -1.14153,0.103869 -1.14205,0.103353 -1.16221,0.572058 -1.16272,0.572575 -1.86552,1.440222 -1.86551,1.439706 -1.3839,0.911053 -1.38389,0.91054 h -0.35089 -0.35088 v -0.36587 -0.36639 l 1.125,-1.267617 1.12551,-1.267623 V 97.458652 97.22094 l -0.30076,-0.751375 -0.30076,-0.751892 0.68678,-0.955498 0.68678,-0.955497 -0.0599,-0.313159 -0.0594,-0.312642 -0.40152,-0.05736 z m -21.17855,5.647717 h 0.16485 0.16484 l -0.12247,0.515731 -0.12196,0.515731 -0.23616,0.582907 -0.23564,0.58291 -0.43098,0.40205 -0.43099,0.40152 h -0.23512 -0.23461 l -0.11886,-0.19223 -0.11886,-0.19224 0.12196,-0.55449 0.12144,-0.55449 0.85628,-0.753956 z" /><path
       id="path360"
       style="fill:#8dcbe6;fill-opacity:1;stroke:none;stroke-width:1.988;stroke-dasharray:none;stroke-opacity:1"
       d="m 105.59821,77.144645 -1.09141,1.139982 -1.09141,1.139466 -1.90169,-1.122412 -1.901176,-1.122929 -0.311608,0.344165 -0.311093,0.344165 0.117823,1.280025 0.117822,1.280025 0.09508,0.613916 0.0956,0.613399 -1.015442,1.074353 -1.015442,1.074353 -0.212907,0.409795 -0.212907,0.409277 v 1.144116 1.1436 l -0.289388,0.692464 -0.289388,0.692981 -1.123962,1.734778 -1.123962,1.735294 -0.274919,0.778247 -0.274402,0.778247 v 1.016992 1.017509 l 0.274402,0.531234 0.274919,0.530717 0.575158,0.484208 0.575159,0.483692 0.613399,0.169498 0.613916,0.169499 0.533301,0.494544 0.533301,0.494026 h 0.357084 0.357084 l 0.506429,-0.26355 0.506429,-0.263549 0.396358,-0.439767 0.396352,-0.439766 0.78083,-1.35444 0.78083,-1.353922 0.7922,-0.533301 0.7922,-0.533301 1.52859,-0.784965 1.52911,-0.785481 h 0.11369 0.11368 l -0.12247,1.078487 -0.12247,1.078487 -0.52762,1.126546 -0.52761,1.127063 -1.43713,1.494483 -1.43712,1.493965 -0.48472,0.635104 -0.48473,0.635616 -0.33641,0.95653 -0.33693,0.95602 v 0.42219 0.4222 l 0.39791,1.0635 0.39739,1.06299 0.64389,0.71261 0.64337,0.71211 0.88108,0.56017 0.88109,0.56017 0.84387,0.23306 0.84439,0.23255 1.21905,0.23099 1.21905,0.23151 0.89245,0.0212 0.89194,0.0212 1.90841,-0.2868 1.90789,-0.2868 1.28829,-0.44752 1.28778,-0.44804 0.45992,-0.30127 0.45992,-0.30179 v -0.25373 -0.25425 l -0.28319,-0.23513 -0.28318,-0.23461 -1.35806,0.49403 -1.35754,0.49454 -1.3131,0.27699 -1.3131,0.27698 -1.98592,0.003 -1.98644,0.003 -1.42214,-0.3638 -1.42265,-0.3638 -0.71779,-0.45785 -0.71727,-0.45786 -0.41289,-0.447 -0.41341,-0.447 -0.28991,-0.69453 -0.29042,-0.69505 v -0.87436 -0.87489 l 0.40825,-0.67851 0.40824,-0.67851 1.63763,-1.708938 1.63762,-1.70894 0.41755,-0.818038 0.41754,-0.818554 0.34985,-1.223182 0.34985,-1.223698 v -1.089855 -1.090373 l 0.56483,-0.7028 0.56534,-0.703316 0.21497,-1.026294 0.21549,-1.026294 -0.26613,-0.557072 -0.26562,-0.557072 -0.46767,-0.05064 -0.46716,-0.05116 -0.57774,0.357084 -0.57774,0.356567 -0.34675,0.725537 -0.34675,0.725537 -0.10749,1.201478 -0.10697,1.20096 -1.02836,0.555005 -1.02836,0.554488 -0.89762,0.469739 -0.89813,0.469222 -0.89401,0.803568 -0.89348,0.804085 -0.528132,1.043348 -0.528133,1.043864 -0.475423,0.475423 -0.475423,0.475423 h -0.183451 -0.183452 l 0.273885,-0.422197 0.274402,-0.421679 0.251664,-0.406694 0.252181,-0.40721 -0.246496,-0.296106 -0.24598,-0.296623 h -0.244946 -0.24443 l -0.536401,0.650607 -0.536402,0.651123 -0.465087,-0.135393 -0.465088,-0.134875 -0.424781,-0.303341 -0.42478,-0.302824 -0.169499,-0.590661 -0.169498,-0.590662 0.113688,-0.699699 0.113688,-0.699699 0.548804,-0.938444 0.548287,-0.938961 0.650089,-0.987019 0.65009,-0.98702 0.347265,-0.794784 0.347266,-0.794783 0.110587,-1.374077 0.110588,-1.374076 1.168404,-1.28881 1.168404,-1.289327 1.66811,-0.712618 1.66812,-0.712618 0.82527,-0.917257 0.82579,-0.91674 0.0434,0.07286 0.0434,0.07286 0.59479,1.242818 0.5948,1.242818 2.31045,0.08785 2.31045,0.08785 0.99426,0.529683 0.99425,0.529167 0.82838,0.729155 0.82837,0.729671 0.53847,0.797367 0.53847,0.797884 0.59272,1.255738 0.59325,1.25522 v 0.299723 0.300241 l 0.56999,1.701188 0.56999,1.701705 0.46147,1.953369 0.46199,1.953369 v 0.527616 0.527617 l -0.55242,0.192753 -0.55242,0.192236 -0.83664,0.771012 -0.83665,0.771013 -0.29869,0.630452 -0.2992,0.63045 v 0.77773 0.77773 l 0.49609,0.45992 0.4961,0.45992 h 0.64698 0.64699 l 0.49816,-0.30179 0.49765,-0.30231 0.46095,-0.57154 0.46096,-0.57154 0.33021,-0.95498 0.33021,-0.954977 0.006,-0.515731 0.006,-0.515731 h 0.54673 0.54726 l 0.81287,0.350883 0.81235,0.350883 0.82062,0.731738 0.82011,0.732255 -0.39843,0.7431 -0.39791,0.74311 v 0.61805 0.61857 l 0.42013,0.15554 0.42013,0.15503 0.48163,-0.13797 0.48162,-0.13798 0.56069,-0.2899 0.56069,-0.28991 1.3038,-1.37563 1.30431,-1.375101 1.33428,-1.968356 1.33481,-1.968872 2.28616,-3.552238 2.28668,-3.552754 1.85777,-2.449463 1.85725,-2.448946 0.68885,-0.728121 0.68885,-0.727604 2.36626,-0.440284 2.36626,-0.4408 1.21957,-0.3545 1.21905,-0.3545 0.74982,-0.315743 0.75034,-0.315743 0.51573,-0.494027 0.51573,-0.494027 v -0.427364 -0.427364 l -0.36277,-0.193786 -0.36276,-0.194304 -1.27796,0.0021 -1.27848,0.0021 -1.03146,0.273885 -1.03146,0.274402 -1.3131,0.656291 -1.3131,0.656291 -1.09864,0.83199 -1.09915,0.831991 -0.59583,0.111621 -0.59635,0.112138 -3.50831,0.173633 -3.5078,0.173632 -3.33055,-0.172599 -3.33106,-0.172082 -2.81326,-0.353467 -2.81327,-0.353467 -0.23461,0.08992 -0.23409,0.08992 v 0.432015 0.432015 l 0.57722,0.485758 0.57671,0.485759 0.48318,0.120923 0.48265,0.121439 0.29973,-0.179834 0.29972,-0.18035 4.22041,0.187068 4.2199,0.187069 3.37602,-0.230477 3.37602,-0.230994 0.9369,-0.114721 0.93638,-0.114722 -0.99478,1.088306 -0.99477,1.088822 -1.18287,1.519804 -1.18236,1.520321 -1.41128,2.062923 -1.41128,2.062923 -1.54461,2.532145 -1.54461,2.532145 -0.7984,1.128097 -0.79892,1.128613 -0.79427,0.793751 -0.79426,0.79427 h -0.14263 -0.14263 l -0.23461,-0.56586 -0.23409,-0.565858 -1.0542,-0.964799 -1.05472,-0.965316 -0.83354,-0.369486 -0.83354,-0.369487 -0.92863,-0.115755 -0.92862,-0.115755 -0.32556,-1.611271 -0.32608,-1.611788 -0.50591,-1.764234 -0.5054,-1.76475 -0.47801,-1.219047 -0.47852,-1.219047 -0.64957,-1.313098 -0.64957,-1.313098 -0.68627,-0.843876 -0.68574,-0.843876 -0.75035,-0.699699 -0.75034,-0.700216 -1.03146,-0.545186 -1.03146,-0.54467 -1.0604,-0.302824 -1.0604,-0.302307 h -1.12758 -1.12706 l -0.77153,-1.594218 -0.77205,-1.594218 h -0.27027 z m 43.88827,1.554944 0.45889,0.08733 0.45837,0.08785 -0.17673,0.330729 -0.17725,0.330729 -0.86713,0.407728 -0.86714,0.40721 -1.71772,0.441833 -1.71772,0.442351 -0.6563,0.109037 -0.6568,0.109554 0.6568,-0.561723 0.6563,-0.56224 1.31309,-0.659391 1.31259,-0.659391 0.99063,-0.155546 z m -48.96342,0.497127 0.74879,0.427881 0.7488,0.427364 10e-4,0.118856 0.002,0.118856 -0.32815,0.112654 -0.32814,0.112138 -0.4222,0.185002 -0.42168,0.184485 v -0.843876 z m 90.03533,4.512903 -0.51986,0.0041 -0.51987,0.0036 -0.81752,0.371036 -0.817,0.371037 -1.16737,0.928626 -1.16737,0.929142 -1.78077,1.855184 -1.78077,1.855184 -1.4981,1.995227 -1.4981,1.995227 -0.95602,1.604036 -0.95601,1.60352 -0.90795,0.721403 -0.90744,0.721403 -1.83348,1.241785 -1.83297,1.241791 h -0.27698 -0.27647 v -0.43874 -0.43925 l 0.70332,-1.040763 0.70331,-1.04128 0.72554,-1.045414 0.72605,-1.045931 -0.11058,-0.287838 -0.11007,-0.287321 h -0.34624 -0.34571 l -0.55087,0.577226 -0.55087,0.576709 -1.78181,1.360124 -1.7818,1.360124 -1.18184,0.796334 -1.18236,0.79582 -0.67334,0.28163 -0.67283,0.28112 -0.27337,-0.27336 -0.27285,-0.27286 0.23306,-0.4439 0.23306,-0.4439 0.55397,-0.706932 0.55449,-0.706933 -0.10697,-0.277503 -0.10645,-0.278019 h -0.26975 -0.26975 l -1.45676,1.238167 -1.45676,1.23817 -0.44132,0.20102 -0.44131,0.20102 -0.20051,-0.2005 -0.2005,-0.20051 0.33899,-0.714684 0.339,-0.714168 1.16841,-1.238684 1.1684,-1.238684 0.94981,-0.516765 0.95033,-0.517281 0.5147,0.05943 0.5147,0.05891 0.0574,0.403593 0.0574,0.403593 -0.57309,0.652673 -0.57361,0.652674 v 0.116272 0.115755 h 0.38344 0.38292 l 0.92966,-0.869714 0.93018,-0.869715 V 95.912441 95.41273 l -0.22531,-0.224793 -0.2248,-0.225309 h -0.77256 -0.77256 l -0.94826,0.281637 -0.94775,0.281636 -1.3839,0.903821 -1.38337,0.903821 -0.90589,1.008207 -0.90589,1.008724 -0.36018,0.705896 -0.36019,0.70539 v 0.56379 0.56327 l 0.38447,0.20567 0.38448,0.20568 0.63252,-0.20878 0.632,-0.20825 0.7183,-0.51677 0.7183,-0.51625 0.24185,-0.14624 0.24185,-0.14573 -0.12196,0.48576 -0.12196,0.48576 0.30644,0.46767 h 0.001 l 0.30644,0.46767 h 0.47077 0.47077 l 0.97824,-0.49557 0.97875,-0.49506 1.40663,-0.94103 1.40663,-0.941547 0.68317,-0.532784 0.68368,-0.532784 h 0.0822 0.0822 l -0.62477,1.241784 -0.62529,1.241791 v 0.54622 0.5457 l 0.42117,0.15606 0.42116,0.15555 0.55656,-0.19379 0.55655,-0.1943 2.23242,-1.51516 2.23294,-1.51515 0.39068,-0.28112 0.39119,-0.28112 -0.15917,0.375171 -0.15864,0.374654 -0.0868,1.151865 -0.0868,1.15187 0.39533,0.39533 0.39584,0.39584 0.70332,-0.004 0.70331,-0.004 0.79634,-0.36174 0.79685,-0.36173 0.89141,-0.60358 0.89142,-0.60358 1.85622,-1.401988 1.85673,-1.401981 -0.13022,0.980819 -0.13022,0.980301 -0.37311,0.997869 -0.37362,0.99839 -0.30489,0.11731 -0.30489,0.11679 -0.49558,-0.47439 -0.49558,-0.47491 h -0.21755 -0.21756 l -0.19327,0.36122 -0.19379,0.36173 0.10336,0.26976 0.10335,0.26923 0.46767,0.21291 0.46716,0.2129 h 0.61701 0.6165 l 1.48467,-0.90278 1.48414,-0.90331 1.40715,-1.005105 1.40663,-1.005107 1.07694,-0.858346 1.07694,-0.857828 0.001,-0.234611 5.2e-4,-0.234611 h -0.17673 -0.17674 l -1.18287,0.929659 -1.18288,0.929659 -1.65364,1.152384 -1.65365,1.152386 -0.10593,-0.10594 -0.10594,-0.10593 0.33486,-1.741501 0.33435,-1.741495 0.2527,-0.727088 0.25269,-0.727087 V 95.314295 95.15048 h -0.15451 -0.15451 l -1.58027,1.513603 -1.58078,1.514119 -1.87534,1.273308 -1.87533,1.27331 -0.60048,0.30747 -0.59997,0.30748 h -0.48317 -0.48266 l -0.1819,-0.47801 -0.18138,-0.47801 0.17673,-0.79013 0.17725,-0.79065 0.38602,-0.872814 0.38603,-0.872815 2.17196,-1.686202 2.17247,-1.686719 2.25568,-2.033468 2.25516,-2.033467 1.29553,-1.500684 1.29552,-1.500167 0.49093,-0.993221 0.49041,-0.993221 -0.20981,-0.460437 z m -1.13378,1.084172 v 0.363285 0.363285 l -0.5736,0.866614 -0.57361,0.866097 -1.36581,1.557528 -1.36581,1.557011 -1.87017,1.781803 -1.86965,1.781803 -1.16117,0.903304 -1.16066,0.903305 V 95.572978 95.40813 l 1.14257,-1.676384 1.14205,-1.676383 1.37046,-1.687752 1.37097,-1.688269 1.2852,-1.324984 1.28467,-1.324984 0.65681,-0.488859 0.65629,-0.488859 0.51573,-0.129191 z m -81.5821,2.984314 0.10594,0.10542 0.10542,0.105936 -0.37362,0.813904 -0.37362,0.813904 -0.016,-0.240296 -0.0155,-0.240812 0.2837,-0.679028 z m 67.48839,4.559928 -0.37155,0.198954 -0.37156,0.198955 -0.3545,0.58291 -0.3545,0.58291 0.18345,0.342615 0.18345,0.343131 h 0.37776 0.37724 l 0.45992,-0.496094 0.45992,-0.49661 V 93.07959 92.564376 l -0.29456,-0.113172 z m -34.82113,0.728121 -0.65939,0.578776 -0.65991,0.579293 -0.11937,0.791166 -0.11989,0.791166 -1.11208,1.031462 -1.11259,1.031978 0.14056,0.219625 0.14004,0.220142 1.11983,-0.923458 1.11983,-0.922941 h 0.13126 0.13125 l 0.12403,0.38964 0.1235,0.390157 -1.31826,1.359607 -1.31878,1.360124 -0.12093,0.481619 -0.12092,0.48163 0.0625,0.4222 0.062,0.42168 0.31109,0.19482 0.31058,0.19482 0.73639,-0.22066 0.73587,-0.22014 1.53324,-1.0263 1.53272,-1.026292 -0.28215,0.546222 -0.28215,0.5457 v 0.56534 0.56534 l 0.38395,0.20567 0.38447,0.20568 0.63252,-0.20878 0.63252,-0.20825 0.71779,-0.51677 0.7183,-0.51625 0.24185,-0.14624 0.24184,-0.14573 -0.12195,0.48576 -0.12196,0.48576 0.30644,0.46767 v 5.2e-4 l 0.30644,0.46767 h 0.47077 0.47078 l 0.97875,-0.49558 0.97823,-0.49506 1.40664,-0.94102 1.40663,-0.941033 0.68368,-0.5333 0.68316,-0.532784 h 0.0873 0.0868 l -0.83302,1.605067 -0.83355,1.60507 0.10387,0.27079 0.10387,0.27026 0.42788,-0.003 0.42789,-0.003 2.43809,-2.08308 2.43861,-2.083074 0.95911,-0.643888 0.95964,-0.643888 0.47594,0.119889 0.47594,0.119373 0.76842,-0.694015 0.76843,-0.694531 V 95.3363 95.002987 l -0.31109,-0.119373 -0.31057,-0.119372 -0.76792,0.504878 -0.76739,0.505396 -1.50068,1.128096 -1.50017,1.128614 -1.45366,1.201477 -1.45366,1.201477 v -0.19482 -0.19482 l 0.75034,-1.424203 0.75035,-1.424719 v -0.465605 -0.466121 l -0.28474,-0.109038 -0.28474,-0.109554 -0.51263,0.218592 -0.51211,0.218074 -0.56276,0.461987 -0.56275,0.461988 0.25218,0.160713 0.25269,0.160197 -1.09657,0.836125 -1.09657,0.836642 -1.18184,0.796332 -1.18236,0.79582 -0.67283,0.28163 -0.67334,0.28112 -0.27285,-0.27285 -0.27337,-0.27337 0.23306,-0.4439 0.23306,-0.4439 0.55449,-0.70693 0.55397,-0.706933 -0.10645,-0.277503 -0.10646,-0.278019 h -0.26975 -0.26975 l -1.45676,1.238167 -1.45676,1.238168 -0.44131,0.20102 -0.44184,0.20102 -0.2005,-0.2005 -0.20051,-0.20051 0.339,-0.714682 0.33952,-0.714168 1.16788,-1.238684 1.16841,-1.238684 0.95033,-0.516765 0.94981,-0.517281 0.5147,0.05943 0.51469,0.05891 0.0574,0.403593 0.0579,0.403593 -0.57361,0.652673 -0.57309,0.65319 v 0.115756 0.115755 h 0.38292 0.38344 l 0.92966,-0.869714 0.92966,-0.869715 v -0.513664 -0.51418 l -0.28474,-0.236161 -0.28473,-0.236678 -1.14153,0.103869 -1.14205,0.103353 -1.16221,0.572058 -1.16272,0.572575 -1.86552,1.440222 -1.86551,1.439706 -1.3839,0.911053 -1.38389,0.91054 h -0.35089 -0.35088 v -0.36587 -0.36639 l 1.125,-1.267617 1.12551,-1.267623 V 97.458652 97.22094 l -0.30076,-0.751375 -0.30076,-0.751892 0.68678,-0.955498 0.68678,-0.955497 -0.0599,-0.313159 -0.0594,-0.312642 -0.40152,-0.05736 z m -21.17855,5.647717 h 0.16485 0.16484 l -0.12247,0.515731 -0.12196,0.515731 -0.23616,0.582907 -0.23564,0.58291 -0.43098,0.40205 -0.43099,0.40152 h -0.23512 -0.23461 l -0.11886,-0.19223 -0.11886,-0.19224 0.12196,-0.55449 0.12144,-0.55449 0.85628,-0.753956 z" /><path
       id="path3357"
       style="fill:#e90064;fill-opacity:1;stroke-width:0.187557"
       d="m 45.287675,48.977889 -0.820105,0.08992 -0.820105,0.08992 -0.586528,0.587044 -0.586527,0.586528 -0.05116,11.62513 -0.05116,11.624613 h 2.253092 2.252576 l 0.04909,-8.371065 0.04858,-8.371582 8.046021,8.456848 8.045503,8.456848 0.300241,0.0801 h 5.16e-4 l 0.30024,0.08062 0.656291,0.01499 0.656808,0.01499 0.433048,-0.240295 0.433565,-0.240295 0.362252,-0.550354 0.362769,-0.549838 0.001,-11.487671 0.0016,-11.488187 h -2.248958 -2.248441 l -0.04909,8.377783 -0.04858,8.377266 -7.744747,-8.143172 -7.74423,-8.142655 -0.60203,-0.438733 z m 147.137275,0.390157 -8.39742,0.05581 -8.39794,0.05581 -1.24902,0.615466 -1.24954,0.61495 -0.84594,0.941545 -0.84646,0.941027 -0.4222,1.069186 -0.42219,1.069185 -0.005,1.875855 -0.005,1.875337 0.58705,1.247469 0.58652,1.24747 0.78807,0.788065 0.78755,0.788066 0.97927,0.448034 0.97927,0.448552 0.99683,0.189136 0.99633,0.188619 5.55418,0.001 5.55418,5.17e-4 0.62115,0.378788 0.62064,0.378272 0.2899,0.693497 0.28991,0.693498 -0.093,0.824239 -0.093,0.824239 -0.3669,0.494544 -0.3669,0.494026 -0.45114,0.232028 -0.45062,0.23151 -8.86199,0.0031 -8.86199,0.0031 v 2.255676 l -5.2e-4,-5.16e-4 v 2.255676 l 9.42475,-0.05219 9.42475,-0.05168 1.21904,-0.583427 1.21905,-0.58291 0.72916,-0.717269 0.72915,-0.716752 0.58394,-1.231966 0.58343,-1.231966 -0.002,-1.969389 -0.002,-1.968872 -0.53846,-1.169438 -0.53796,-1.169437 -0.91984,-0.859896 -0.91932,-0.860413 -0.99219,-0.454236 -0.9927,-0.454235 -0.99632,-0.189136 -0.99684,-0.188619 h -5.61981 -5.61982 l -0.62063,-0.621151 -0.62115,-0.620634 -0.12868,-0.858862 -0.12867,-0.858346 0.38551,-0.871264 0.3855,-0.871782 0.65836,-0.274918 0.65784,-0.274919 h 7.69617 7.69566 v -2.25981 z m -178.177758,0.0186 v 12.097452 12.096936 h 2.250509 2.250509 V 61.484102 49.38665 h -2.250509 z m 19.033981,0 -4.873605,4.876188 -4.873604,4.876705 h -1.548743 -1.548742 v 2.344559 2.344043 h 1.548742 1.548743 l 4.873604,4.876705 4.873605,4.877222 3.189986,-5.17e-4 3.189986,-5.17e-4 -6.171716,-6.045109 -6.1712,-6.045109 6.1712,-6.046142 6.171716,-6.046143 -3.189986,-0.0062 z m 38.170796,0 v 12.097452 12.096936 h 2.250509 2.250509 V 61.484102 49.38665 h -2.250509 z m 14.080795,0 -1.033529,0.386539 -1.033012,0.38654 -0.81132,0.788582 -0.811837,0.788583 -0.412894,0.853178 -0.412895,0.853178 -0.200505,1.083138 -0.199987,1.083138 0.05943,6.7076 0.05943,6.708118 0.656808,1.286227 0.656291,1.286226 0.915189,0.690914 0.914673,0.690914 0.867131,0.289388 0.866613,0.289388 8.974646,0.01137 8.974654,0.01137 0.63768,-0.637687 0.63769,-0.637687 v -5.818249 -5.818767 l -0.48317,-0.573608 -0.48266,-0.573609 -0.68936,-0.199987 -0.68937,-0.199471 -6.846097,0.05581 -6.845577,0.05529 v 2.251025 2.250509 l 5.76709,0.04961 5.767614,0.04961 v 2.623095 2.623096 H 93.24082 86.14668 L 85.691927,68.595813 85.237174,68.112122 V 61.45258 54.793038 l 0.526067,-0.452686 0.526582,-0.452685 h 9.179802 9.179805 V 51.637158 49.38665 h -9.558593 z m 23.805266,0 v 12.097452 12.096936 h 2.25102 2.25051 V 68.70485 63.828145 h 7.59592 7.59592 v 4.876705 4.876188 h 2.25103 2.2505 V 61.484102 49.38665 h -2.2505 -2.25103 v 4.876188 4.876705 h -7.59592 -7.59592 V 54.262838 49.38665 h -2.25051 z m 27.38334,0 v 2.250508 2.250509 h 4.78265 4.78266 v 9.846944 9.846427 h 2.34456 2.34456 v -9.846427 -9.846944 h 4.78265 4.78266 V 51.637158 49.38665 h -11.90987 z m 27.33373,0.925008 -0.093,0.0925 -0.093,0.09302 -0.72606,3.988904 -0.72657,3.98942 v 0.238229 0.238228 h 1.5813 1.58078 l 0.29094,-0.984953 0.29094,-0.984436 1.01338,-3.28197 1.01337,-3.282487 -2.06602,-0.05323 z" /></g></svg>
