<?xml version="1.0" encoding="UTF-8" standalone="no"?>
<!-- Created with Inkscape (http://www.inkscape.org/) -->

<svg
   width="120.30344mm"
   height="119.34763mm"
   viewBox="0 0 120.30344 119.34763"
   version="1.1"
   id="svg5"
   xml:space="preserve"
   sodipodi:docname="knight.svg"
   inkscape:version="1.2.2 (732a01da63, 2022-12-09)"
   xmlns:inkscape="http://www.inkscape.org/namespaces/inkscape"
   xmlns:sodipodi="http://sodipodi.sourceforge.net/DTD/sodipodi-0.dtd"
   xmlns="http://www.w3.org/2000/svg"
   xmlns:svg="http://www.w3.org/2000/svg"><sodipodi:namedview
     id="namedview7"
     pagecolor="#ffffff"
     bordercolor="#000000"
     borderopacity="0.25"
     inkscape:showpageshadow="2"
     inkscape:pageopacity="0.0"
     inkscape:pagecheckerboard="0"
     inkscape:deskcolor="#d1d1d1"
     inkscape:document-units="mm"
     showgrid="false"
     inkscape:zoom="1.0129245"
     inkscape:cx="409.21114"
     inkscape:cy="253.22716"
     inkscape:window-width="1920"
     inkscape:window-height="991"
     inkscape:window-x="-9"
     inkscape:window-y="-9"
     inkscape:window-maximized="1"
     inkscape:current-layer="layer1" /><defs
     id="defs2" /><g
     inkscape:label="Layer 1"
     inkscape:groupmode="layer"
     id="layer1"
     transform="translate(-40.489312,-80.552175)"><g
       id="g6742"
       transform="matrix(0.21058285,0,0,0.21058285,40.503975,79.051196)"
       inkscape:label="knight"
       style="stroke:#000000;stroke-width:7.42677;stroke-linecap:round;stroke-linejoin:round;stroke-dasharray:none;stroke-opacity:1;paint-order:normal"><path
         id="path6721"
         d="m 262.59504,68.676794 c -0.64826,3.76e-4 -1.34022,0.09313 -2.10352,0.236328 -2.87198,0.539 -6.34174,3.729937 -20.26172,18.628907 -9.23848,9.88788 -17.14059,17.978521 -17.55859,17.978521 -0.418,0 -12.82721,-7.260789 -27.57617,-16.134771 -31.97064,-19.235662 -31.7673,-19.137472 -35.9961,-17.359376 -6.20808,2.609996 -6.20078,2.511438 -3.17578,40.693357 l 2.19531,27.69923 -2.89843,4.30078 c -1.594,2.365 -9.10136,10.44744 -16.68164,17.96094 -11.48318,11.38136 -14.32279,14.802 -17.02148,20.5 l -3.24024,6.83984 -0.041,18.5 c -0.0382,16.60296 -0.27625,19.15378 -2.30665,24.88086 -3.91699,11.04798 -9.6268,21.23529 -23.675777,42.24023 -20.52836,30.69194 -28.689728,48.82778 -30.140626,66.96876 -2.255994,28.21594 18.100698,53.18972 46.806643,57.41992 4.20269,0.6193 4.81162,1.06256 6.44531,4.68554 0.9924,2.2009 3.21054,5.07302 4.92774,6.38282 3.68299,2.80888 10.63529,5.41992 14.42968,5.41992 8.88998,0 21.56654,-7.59265 29.45312,-17.64063 2.4613,-3.13598 7.04602,-10.68621 10.1875,-16.77929 16.90998,-32.79794 22.8589,-38.4475 60.75782,-57.68946 9.98498,-5.06898 22.8207,-12.06813 28.52148,-15.55273 5.7008,-3.4846 10.60419,-6.33594 10.89844,-6.33594 0.29422,0 0.27359,5.96252 -0.0469,13.25 -0.908,20.64896 -4.3179,34.07682 -12.9629,51.05078 -7.24398,14.22198 -13.44471,21.76928 -36.72265,44.69922 -25.83896,25.45196 -32.5977,34.55248 -38.45508,51.77344 -6.85368,20.14996 -5.65155,43.92699 2.42383,47.95899 l 0.006,0.004 c 1.96998,0.9849 35.56899,1.19745 159.21875,1.00781 l 156.7207,-0.24023 2.27735,-2.28711 c 2.2275,-2.237 2.27599,-2.73204 2.17187,-22.5 -0.331,-62.77988 -12.75863,-141.76092 -32.93359,-209.30078 -11.74898,-39.33392 -24.56698,-67.36903 -42.25196,-92.41797 -8.18398,-11.59198 -25.86577,-29.47179 -36.84375,-37.25977 -16.44296,-11.66498 -36.75111,-20.4603 -57.20507,-24.77149 -11.26398,-2.37423 -32.95461,-3.5252 -41.86329,-2.2207 l -6.20507,0.9082 -11.3927,-25.043067 C 269.60054,73.226753 267.13284,68.674163 262.59504,68.676794 Z m -3.14258,24.47461 2.48242,5.435547 c 1.3664,2.988989 5.99453,13.170429 10.2832,22.624999 4.2887,9.45457 8.32029,17.38967 8.95899,17.63477 0.6387,0.2451 4.5195,-0.25232 8.625,-1.10547 4.84797,-1.00755 13.24787,-1.58144 23.96484,-1.63672 17.93097,-0.0925 29.48903,1.76116 44.41797,7.12305 24.88394,8.93697 49.35249,28.00703 65.81446,51.29297 7.66897,10.84797 18.75098,31.82503 24.56445,46.5 19.85094,50.10985 37.81985,136.81724 43.62305,210.5 3.10626,39.44028 3.10612,39.56378 0.21875,42.45118 v 0.002 c -2.6022,2.6022 -7.9294,3.50367 -9.13867,1.54687 -0.41,-0.65904 -48.84387,-1 -142.0586,-1 H 199.76691 l 0.0176,-6.25 c 0.0222,-7.98997 2.23997,-18.44698 5.35547,-25.25195 4.89597,-10.69497 11.12236,-18.22711 32.6543,-39.49805 12.07094,-11.92497 24.42415,-25.13185 27.73632,-29.65625 11.16897,-15.25694 19.70156,-34.56781 24.23633,-54.84375 2.3009,-10.28797 3.50564,-31.88193 2.30664,-41.375 l -0.80664,-6.37695 6.64649,-6.76172 c 12.09927,-12.30997 19.62571,-32.15214 18.57031,-48.95508 -0.6915,-11.00967 -1.98422,-14.45508 -6.16602,-16.43945 -2.63127,-1.24861 -3.95656,-1.3457 -6.46093,-0.47266 -4.93396,1.72 -6.04039,4.9933 -5.39258,15.94727 0.865,14.62194 -2.83164,26.1548 -11.55274,36.04297 -7.39697,8.38597 -32.45991,24.36951 -60.79882,38.77148 -28.80394,14.63897 -42.63718,24.65742 -51.81055,37.52539 -2.389,3.352 -8.00196,13.04233 -12.47266,21.5332 -8.71697,16.55497 -13.00299,22.5575 -19.42969,27.2129 -4.64167,3.3625 -10.85542,3.71902 -11.43554,0.65625 -0.1763,-0.931 2.8254,-5.88083 6.67187,-11 8.49493,-11.30557 9.37338,-13.32827 7.60938,-17.52344 -2.096,-4.9856 -7.31088,-6.7014 -12.15625,-4 -1.1982,0.6677 -5.19296,5.21218 -8.87695,10.09765 l -6.69727,8.88282 -6.42187,-0.59961 c -11.73597,-1.096 -23.698925,-9.70098 -28.56641,-20.54492 -2.757091,-6.142 -3.341369,-17.78681 -1.359375,-27.10938 2.331994,-10.96897 10.498361,-26.56078 26.195315,-50.01172 14.30996,-21.37894 22.74497,-37.27403 26.53124,-50 1.92062,-6.45497 2.24084,-9.93806 2.30274,-25 0.086,-21.03294 -0.23231,-20.28964 14.59766,-33.97461 5.52397,-5.09697 12.99115,-13.21469 16.59375,-18.03906 l 6.54882,-8.77149 27.16602,-11.68945 27.16406,-11.68946 15.5918,-16.10351 z m -86.46289,3.824219 c 0.155,-0.1516 7.52049,4.073337 16.36719,9.386717 l 16.08398,9.66016 -15.16992,6.60351 -15.17188,6.60352 -1.19531,-15.98828 c -0.65761,-8.79427 -1.06906,-16.11403 -0.91406,-16.265627 z m 11.13281,92.621097 c -5.3001,0.003 -11.01189,2.63547 -15.05664,7.24219 -2.651,3.018 -15.69456,24.00095 -20.21875,32.52344 -1.1641,2.19287 -1.0929,2.30164 1.0918,1.69726 1.2843,-0.3553 6.14759,-2.53038 10.80859,-4.83398 6.42839,-3.1766 10.29151,-6.00037 16,-11.69727 6.91499,-6.90099 15.02539,-18.64712 15.02539,-21.76172 0,-0.7137 -1.15365,-1.73704 -2.56445,-2.27343 -1.598,-0.60753 -3.31924,-0.89755 -5.08594,-0.89649 z M 101.5716,326.52641 c -4.350893,0.007 -8.799444,3.75625 -11.527342,9.71484 -2.060898,4.501 -2.692599,7.71564 -3.074218,15.64063 h -0.002 l -0.480468,9.97656 10.892578,-7.47656 c 11.07859,-7.60459 15.39062,-12.24495 15.39062,-16.55664 0,-5.6866 -5.57152,-11.30783 -11.19922,-11.29883 z"
         inkscape:label="kngiht"
         style="fill:#9ce1ff;fill-opacity:1;stroke:#000000;stroke-width:7.42677;stroke-linecap:round;stroke-linejoin:round;stroke-dasharray:none;stroke-opacity:1;paint-order:normal" /></g></g></svg>
